HIERARCHY
ROOT hip
{
  OFFSET 0 0 0
  CHANNELS 6 Xposition Yposition Zposition Zrotation Yrotation Xrotation
  JOINT abdomen
  {
    OFFSET 0 20.6881 -0.73152
    CHANNELS 3 Zrotation Xrotation Yrotation
    JOINT chest
    {
      OFFSET 0 11.7043 -0.48768
      CHANNELS 3 Zrotation Xrotation Yrotation
      JOINT neck
      {
        OFFSET 0 22.1894 -2.19456
        CHANNELS 3 Zrotation Xrotation Yrotation
        JOINT head
        {
          OFFSET -0.24384 7.07133 1.2192
          CHANNELS 3 Zrotation Xrotation Yrotation
          JOINT leftEye
          {
            OFFSET 4.14528 8.04674 8.04672
            CHANNELS 3 Zrotation Xrotation Yrotation
            End Site
            {
              OFFSET 1 0 0
            }
          }
          JOINT rightEye
          {
            OFFSET -3.6576 8.04674 8.04672
            CHANNELS 3 Zrotation Xrotation Yrotation
            End Site
            {
              OFFSET 1 0 0
            }
          }
        }
      }
      JOINT rCollar
      {
        OFFSET -2.68224 19.2634 -4.8768
        CHANNELS 3 Zrotation Xrotation Yrotation
        JOINT rShldr
        {
          OFFSET -8.77824 -1.95073 1.46304
          CHANNELS 3 Zrotation Xrotation Yrotation
          JOINT rForeArm
          {
            OFFSET -28.1742 -1.7115 0.48768
            CHANNELS 3 Zrotation Xrotation Yrotation
            JOINT rHand
            {
              OFFSET -22.5879 0.773209 7.07136
              CHANNELS 3 Zrotation Xrotation Yrotation
              JOINT rThumb1
              {
                OFFSET -1.2192 -0.487915 3.41376
                CHANNELS 3 Zrotation Xrotation Yrotation
                JOINT rThumb2
                {
                  OFFSET -3.37035 -0.52449 3.41376
                  CHANNELS 3 Zrotation Xrotation Yrotation
                  End Site
                  {
                    OFFSET -1.78271 -1.18214 1.43049
                  }
                }
              }
              JOINT rIndex1
              {
                OFFSET -7.75947 0.938293 5.60832
                CHANNELS 3 Zrotation Xrotation Yrotation
                JOINT rIndex2
                {
                  OFFSET -2.54057 -0.884171 1.56538
                  CHANNELS 3 Zrotation Xrotation Yrotation
                  End Site
                  {
                    OFFSET -1.62519 -0.234802 1.16502
                  }
                }
              }
              JOINT rMid1
              {
                OFFSET -8.24714 1.18213 3.41376
                CHANNELS 3 Zrotation Xrotation Yrotation
                JOINT rMid2
                {
                  OFFSET -3.10165 -0.590103 1.0647
                  CHANNELS 3 Zrotation Xrotation Yrotation
                  End Site
                  {
                    OFFSET -2.48547 -0.328903 0.83742
                  }
                }
              }
              JOINT rRing1
              {
                OFFSET -8.82822 0.546677 1.51678
                CHANNELS 3 Zrotation Xrotation Yrotation
                JOINT rRing2
                {
                  OFFSET -2.60934 -0.819778 -0.0198488
                  CHANNELS 3 Zrotation Xrotation Yrotation
                  End Site
                  {
                    OFFSET -2.33842 -0.294052 0.168128
                  }
                }
              }
              JOINT rPinky1
              {
                OFFSET -8.27202 -0.0477905 -0.4584
                CHANNELS 3 Zrotation Xrotation Yrotation
                JOINT rPinky2
                {
                  OFFSET -1.82734 -0.647385 -0.700984
                  CHANNELS 3 Zrotation Xrotation Yrotation
                  End Site
                  {
                    OFFSET -1.69225 -0.51767 -0.607171
                  }
                }
              }
            }
          }
        }
      }
      JOINT lCollar
      {
        OFFSET 2.68224 19.2634 -4.8768
        CHANNELS 3 Zrotation Xrotation Yrotation
        JOINT lShldr
        {
          OFFSET 8.77824 -1.95073 1.46304
          CHANNELS 3 Zrotation Xrotation Yrotation
          JOINT lForeArm
          {
            OFFSET 28.1742 -1.7115 0.48768
            CHANNELS 3 Zrotation Xrotation Yrotation
            JOINT lHand
            {
              OFFSET 22.5879 0.773209 7.07136
              CHANNELS 3 Zrotation Xrotation Yrotation
              JOINT lThumb1
              {
                OFFSET 1.2192 -0.487915 3.41376
                CHANNELS 3 Zrotation Xrotation Yrotation
                JOINT lThumb2
                {
                  OFFSET 3.37035 -0.52449 3.41376
                  CHANNELS 3 Zrotation Xrotation Yrotation
                  End Site
                  {
                    OFFSET 1.78271 -1.18214 1.43049
                  }
                }
              }
              JOINT lIndex1
              {
                OFFSET 7.75947 0.938293 5.60832
                CHANNELS 3 Zrotation Xrotation Yrotation
                JOINT lIndex2
                {
                  OFFSET 2.54057 -0.884171 1.56538
                  CHANNELS 3 Zrotation Xrotation Yrotation
                  End Site
                  {
                    OFFSET 1.62519 -0.234802 1.16502
                  }
                }
              }
              JOINT lMid1
              {
                OFFSET 8.24714 1.18213 3.41376
                CHANNELS 3 Zrotation Xrotation Yrotation
                JOINT lMid2
                {
                  OFFSET 3.10165 -0.590103 1.0647
                  CHANNELS 3 Zrotation Xrotation Yrotation
                  End Site
                  {
                    OFFSET 2.48547 -0.328903 0.83742
                  }
                }
              }
              JOINT lRing1
              {
                OFFSET 8.82822 0.546677 1.51678
                CHANNELS 3 Zrotation Xrotation Yrotation
                JOINT lRing2
                {
                  OFFSET 2.60934 -0.819778 -0.0198488
                  CHANNELS 3 Zrotation Xrotation Yrotation
                  End Site
                  {
                    OFFSET 2.33842 -0.294052 0.168128
                  }
                }
              }
              JOINT lPinky1
              {
                OFFSET 8.27202 -0.0477905 -0.4584
                CHANNELS 3 Zrotation Xrotation Yrotation
                JOINT lPinky2
                {
                  OFFSET 1.82734 -0.647385 -0.700984
                  CHANNELS 3 Zrotation Xrotation Yrotation
                  End Site
                  {
                    OFFSET 1.69225 -0.51767 -0.607171
                  }
                }
              }
            }
          }
        }
      }
    }
  }
  JOINT rButtock
  {
    OFFSET -8.77824 4.35084 1.2192
    CHANNELS 3 Zrotation Xrotation Yrotation
    JOINT rThigh
    {
      OFFSET 0 -1.70687 -2.19456
      CHANNELS 3 Zrotation Xrotation Yrotation
      JOINT rShin
      {
        OFFSET 0 -36.8199 0.73152
        CHANNELS 3 Zrotation Xrotation Yrotation
        JOINT rFoot
        {
          OFFSET 0.73152 -45.1104 -5.12064
          CHANNELS 3 Zrotation Xrotation Yrotation
          End Site
          {
            OFFSET -1.1221 -3.69964 12.103
          }
        }
      }
    }
  }
  JOINT lButtock
  {
    OFFSET 8.77824 4.35084 1.2192
    CHANNELS 3 Zrotation Xrotation Yrotation
    JOINT lThigh
    {
      OFFSET 0 -1.70687 -2.19456
      CHANNELS 3 Zrotation Xrotation Yrotation
      JOINT lShin
      {
        OFFSET 0 -36.8199 0.73152
        CHANNELS 3 Zrotation Xrotation Yrotation
        JOINT lFoot
        {
          OFFSET -0.73152 -45.1104 -5.12064
          CHANNELS 3 Zrotation Xrotation Yrotation
          End Site
          {
            OFFSET 1.1221 -3.69964 12.103
          }
        }
      }
    }
  }
}
MOTION
Frames:	4
Frame Time:	0.03333
-20.51663008784326 56.67259988339953 2.8030000045629855 -1.0246000289916992 -6.336501121520996 1.081010341644287 -3.6015799045562744 15.284997940063477 -5.88677978515625 6.789269924163818 -10.932001113891602 -1.189509630203247 -1.6203700304031372 10.051800727844238 2.3040401935577393 2.324130058288574 -20.86490249633789 5.15464973449707 -0.0 0.0 -0.0 -0.0 0.0 -0.0 -2.985749803863583e-14 3.299940073801799e-14 3.414690134383863e-13 97.86730194091797 47.72429656982422 -49.95899200439453 -27.145299911499023 -43.61470413208008 90.68269348144531 -19.52720069885254 -72.4742202758789 -26.42630386352539 -9.62399937520786e-10 4.031570188800515e-09 9.250640253810616e-10 -1.7011999586813431e-09 6.905019667158285e-09 1.5275899434286089e-09 -9.623929431157308e-10 4.031570188800515e-09 9.250599175558705e-10 7.730909824371338 5.474879741668701 0.4173140823841095 -9.62404045345977e-10 4.031570188800515e-09 9.250650245817837e-10 2.9055399894714355 0.9651829600334167 0.10290199518203735 -9.623880581344224e-10 4.0315599747486885e-09 9.250589183551483e-10 10.27859878540039 0.73180091381073 0.025912316516041756 -9.624089303272854e-10 4.031570188800515e-09 9.250689658735212e-10 2.221669912338257 -0.733487069606781 -0.208919957280159 -2.997549989258372e-14 3.299679865280403e-14 3.4112700186307576e-13 -72.90299987792969 -2.295259714126587 -82.7294921875 6.079359531402588 -2.078510046005249 -10.628600120544434 21.64559555053711 73.65021514892578 -28.64059829711914 2.7188500340002975e-09 -1.1516799069966055e-08 -1.6755099530030293e-09 4.54030990582055e-09 -1.8607799745495868e-08 -3.0289797336990887e-09 2.718839819948471e-09 -1.1516799069966055e-08 -1.6754998499735052e-09 -7.730909824371338 5.474879741668701 -0.4173140823841095 2.7188500340002975e-09 -1.1516899434127481e-08 -1.6755099530030293e-09 -2.9055399894714355 0.9651829600334167 -0.10290199518203735 2.718839819948471e-09 -1.1516899434127481e-08 -1.6755099530030293e-09 -10.27859878540039 0.73180091381073 -0.025912316516041756 2.7188500340002975e-09 -1.1516799069966055e-08 -1.675519945010251e-09 -2.221669912338257 -0.733487069606781 0.208919957280159 -2.0321699480147914e-16 0.0 -3.8825099822884138e-19 -43.74959945678711 -55.500999450683594 -26.498899459838867 -39.049800872802734 88.39488983154297 39.773902893066406 -4.2540202140808105 -34.093101501464844 -5.851180553436279 2.0321699480147914e-16 0.0 3.8825099822884138e-19 54.07649612426758 -42.97750473022461 49.286895751953125 167.5139923095703 85.13848114013672 -168.84800720214844 10.383798599243164 -23.49090003967285 17.460098266601562
-20.557380086993987 56.59709897231421 2.8520000051172283 -0.8205000758171082 -6.529099464416504 0.9959883093833923 -3.821589708328247 15.288703918457031 -6.2071990966796875 6.940969944000244 -10.880800247192383 -1.2764400243759155 -1.5290398597717285 10.074600219726562 2.59097957611084 2.094899892807007 -20.777000427246094 5.666579723358154 -0.0 0.0 -0.0 -0.0 0.0 -0.0 1.11920995949223e-14 4.5324099426933065e-14 3.6273200697441166e-13 99.65099334716797 46.84890365600586 -51.87730407714844 -27.208499908447266 -43.430702209472656 90.32369232177734 -20.179899215698242 -72.86002349853516 -27.11009979248047 -8.405160456526062e-10 3.4637896995093342e-09 8.934209483335565e-10 -1.490980006124687e-09 5.941849678947619e-09 1.4818299920449363e-09 -8.405099394259707e-10 3.4638001356057657e-09 8.934209483335565e-10 7.730909824371338 5.474879741668701 0.4173140823841095 -8.405229845465101e-10 3.4638001356057657e-09 8.934268880267382e-10 2.9055399894714355 0.9651829600334167 0.10290199518203735 -8.405049989335112e-10 3.4637896995093342e-09 8.934199491328343e-10 10.27859878540039 0.73180091381073 0.025912316516041756 -8.405269258382475e-10 3.4638001356057657e-09 8.934339934540958e-10 2.221669912338257 -0.733487069606781 -0.208919957280159 1.1122199895016033e-14 4.532170062962644e-14 3.624339869022497e-13 -77.5689926147461 -3.501490592956543 -82.73119354248047 5.753859996795654 -1.9350998401641846 -10.045899391174316 31.59180450439453 77.38640594482422 -38.9059944152832 3.0750599844253657e-09 -1.5878599768370805e-08 -1.003479965788756e-09 5.1836197556554e-09 -2.6211598225245325e-08 -1.90227988916547e-09 3.075049770373539e-09 -1.5878599768370805e-08 -1.003479965788756e-09 -7.730909824371338 5.474879741668701 -0.4173140823841095 3.0750599844253657e-09 -1.5878599768370805e-08 -1.0034899577959777e-09 -2.9055399894714355 0.9651829600334167 -0.10290199518203735 3.075049770373539e-09 -1.5878599768370805e-08 -1.0034899577959777e-09 -10.27859878540039 0.73180091381073 -0.025912316516041756 3.0750599844253657e-09 -1.5878599768370805e-08 -1.0034899577959777e-09 -2.221669912338257 -0.733487069606781 0.208919957280159 -2.0321699480147914e-16 0.0 -3.8825099822884138e-19 -43.79710006713867 -55.925994873046875 -26.236799240112305 -45.00049591064453 88.56877899169922 45.744693756103516 -4.713059425354004 -33.98970031738281 -6.514509677886963 2.0321699480147914e-16 0.0 3.8825099822884138e-19 53.94999694824219 -42.71470260620117 49.37149429321289 167.75299072265625 85.05049896240234 -169.1079864501953 10.53130054473877 -23.494300842285156 17.693702697753906
-20.599560086966065 56.51979830638259 2.8830000059443077 -0.6923000812530518 -6.974399566650391 0.9239981174468994 -3.943429946899414 15.358500480651855 -6.4770097732543945 7.050329208374023 -10.798999786376953 -1.3516398668289185 -1.4557398557662964 10.006800651550293 2.847909927368164 1.9371702671051025 -20.703001022338867 6.138550281524658 -0.0 0.0 -0.0 -0.0 0.0 -0.0 9.303769235059767e-15 3.776879593038636e-14 8.135569176887306e-14 101.26799011230469 45.98770523071289 -53.490699768066406 -27.25909996032715 -43.279808044433594 90.03060150146484 -20.865699768066406 -73.24449157714844 -27.827098846435547 3.9112696414989045e-10 -5.567680205764702e-10 -4.769760281186919e-11 6.740309976827064e-10 -9.063870209935487e-10 -5.41408966270307e-11 3.911289903069104e-10 -5.567579730580974e-10 -4.7701998601157314e-11 7.730909824371338 5.474879741668701 0.4173140823841095 3.9111897054411315e-10 -5.567680205764702e-10 -4.7697398114499023e-11 2.9055399894714355 0.9651829600334167 0.10290199518203735 3.9113301486537466e-10 -5.567700189779146e-10 -4.769889691558227e-11 10.27859878540039 0.73180091381073 0.025912316516041756 3.911150014968001e-10 -5.567629690617082e-10 -4.768719794046028e-11 2.221669912338257 -0.733487069606781 -0.208919957280159 9.233500228788497e-15 3.7769297373891134e-14 8.108549503496251e-14 -83.36959838867188 -4.803730487823486 -82.90249633789062 5.410339832305908 -1.7873799800872803 -9.43368911743164 56.21920394897461 81.13272857666016 -63.94750213623047 1.2427998630215598e-09 -8.922479644013492e-09 4.5432102524500806e-10 2.162140022576864e-09 -1.526749926483717e-08 6.918969841507305e-10 1.2427899820366406e-09 -8.922460104088259e-09 4.543299902959319e-10 -7.730909824371338 5.474879741668701 -0.4173140823841095 1.2427899820366406e-09 -8.922479644013492e-09 4.543170006865438e-10 -2.9055399894714355 0.9651829600334167 -0.10290199518203735 1.2427899820366406e-09 -8.922479644013492e-09 4.5432102524500806e-10 -10.27859878540039 0.73180091381073 -0.025912316516041756 1.2427998630215598e-09 -8.922469874050876e-09 4.5431600148582163e-10 -2.221669912338257 -0.733487069606781 0.208919957280159 -2.0321699480147914e-16 0.0 -3.8825099822884138e-19 -43.61509704589844 -56.323001861572266 -25.826101303100586 -51.403594970703125 88.70561981201172 52.169097900390625 -5.1975297927856445 -33.85470199584961 -7.219719886779785 2.0321699480147914e-16 0.0 3.8825099822884138e-19 53.87049865722656 -42.38360595703125 49.40480041503906 167.94100952148438 84.97492218017578 -169.31600952148438 10.668798446655273 -23.50420379638672 17.913997650146484
-20.62098008714165 56.44839892389386 2.9140000067713876 -0.5746999382972717 -7.3979010581970215 0.8790006041526794 -4.043971061706543 15.466699600219727 -6.745370864868164 7.193099498748779 -10.724599838256836 -1.422469973564148 -1.3870599269866943 9.934569358825684 3.1071300506591797 1.7342900037765503 -20.65290069580078 6.608320236206055 -0.0 0.0 -0.0 -0.0 0.0 -0.0 -3.140019745140419e-15 2.46478998235794e-14 -1.8114298310032556e-13 102.77400207519531 45.256500244140625 -54.92459487915039 -27.308900833129883 -43.12869644165039 89.73699188232422 -21.215801239013672 -73.4332275390625 -28.19249725341797 1.4002999870754707e-09 -3.9407002105917854e-09 -8.558519448698121e-10 2.4501800588438982e-09 -6.676059705057469e-09 -1.3766799922265704e-09 1.4002999870754707e-09 -3.940689996539959e-09 -8.558619923881849e-10 7.730909824371338 5.474879741668701 0.4173140823841095 1.4002898840459466e-09 -3.9407002105917854e-09 -8.558590502971697e-10 2.9055399894714355 0.9651829600334167 0.10290199518203735 1.4002999870754707e-09 -3.940689996539959e-09 -8.558549424719786e-10 10.27859878540039 0.73180091381073 0.025912316516041756 1.4002898840459466e-09 -3.940689996539959e-09 -8.558459496654791e-10 2.221669912338257 -0.733487069606781 -0.208919957280159 -3.2213099206048878e-15 2.465050021472747e-14 -1.8139098079475446e-13 -88.50709533691406 -6.033629894256592 -83.3241958618164 5.076859951019287 -1.6479101181030273 -8.841389656066895 91.28510284423828 81.89311981201172 -99.37720489501953 -5.226479804498751e-10 -1.4724998997905914e-09 1.6022798643433589e-09 -7.683199076957692e-10 -3.3248797048912593e-09 2.7520901113575746e-09 -5.226509780520416e-10 -1.4725100028201155e-09 1.6022898563505805e-09 -7.730909824371338 5.474879741668701 -0.4173140823841095 -5.226499788513195e-10 -1.4725100028201155e-09 1.6022798643433589e-09 -2.9055399894714355 0.9651829600334167 -0.10290199518203735 -5.226539756542081e-10 -1.4725100028201155e-09 1.6022898563505805e-09 -10.27859878540039 0.73180091381073 -0.025912316516041756 -5.226459820484308e-10 -1.4724800267984506e-09 1.6022798643433589e-09 -2.221669912338257 -0.733487069606781 0.208919957280159 -2.0321699480147914e-16 0.0 -3.8825099822884138e-19 -43.38109588623047 -56.71759796142578 -25.388498306274414 -58.606197357177734 88.81534576416016 59.392799377441406 -5.6722893714904785 -33.708003997802734 -7.9146504402160645 2.0321699480147914e-16 0.0 3.8825099822884138e-19 53.800498962402344 -42.049400329589844 49.42140197753906 168.12599182128906 84.89895629882812 -169.52099609375 10.808198928833008 -23.5044002532959 18.137699127197266
